<svg width="17" height="16" viewBox="0 0 17 16" fill="none" xmlns="http://www.w3.org/2000/svg">
<path d="M8.5 -1.52588e-05C6.81886 -1.52588e-05 5.17547 0.458679 3.77766 1.31806C2.37984 2.17745 1.29037 3.39892 0.647028 4.82803C0.00368291 6.25713 -0.164645 7.82967 0.163329 9.3468C0.491303 10.8639 1.30085 12.2575 2.4896 13.3513C3.67834 14.4451 5.1929 15.19 6.84174 15.4917C8.49057 15.7935 10.1996 15.6386 11.7528 15.0467C13.306 14.4547 14.6335 13.4523 15.5675 12.1661C16.5015 10.88 17 9.36785 17 7.821C16.9976 5.74742 16.1012 3.75942 14.5077 2.29318C12.9142 0.826945 10.7536 0.00222747 8.5 -1.52588e-05ZM8.5 14.3385C7.09905 14.3385 5.72956 13.9563 4.56471 13.2401C3.39987 12.524 2.49198 11.5061 1.95586 10.3151C1.41974 9.12422 1.27946 7.81377 1.55277 6.54949C1.82609 5.28522 2.50071 4.12391 3.49133 3.21242C4.48195 2.30093 5.74408 1.6802 7.11811 1.42872C8.49214 1.17724 9.91637 1.30631 11.2107 1.7996C12.505 2.2929 13.6112 3.12826 14.3896 4.20006C15.1679 5.27186 15.5833 6.53196 15.5833 7.821C15.5813 9.54897 14.8343 11.2056 13.5064 12.4275C12.1785 13.6493 10.378 14.3366 8.5 14.3385ZM12.0417 7.821C12.0417 7.99385 11.967 8.15963 11.8342 8.28185C11.7014 8.40408 11.5212 8.47275 11.3333 8.47275H9.20834V10.428C9.20834 10.6009 9.13371 10.7666 9.00087 10.8889C8.86803 11.0111 8.68786 11.0798 8.5 11.0798C8.31214 11.0798 8.13197 11.0111 7.99914 10.8889C7.8663 10.7666 7.79167 10.6009 7.79167 10.428V8.47275H5.66667C5.47881 8.47275 5.29864 8.40408 5.1658 8.28185C5.03296 8.15963 4.95834 7.99385 4.95834 7.821C4.95834 7.64814 5.03296 7.48237 5.1658 7.36014C5.29864 7.23791 5.47881 7.16925 5.66667 7.16925H7.79167V5.21399C7.79167 5.04114 7.8663 4.87536 7.99914 4.75314C8.13197 4.63091 8.31214 4.56224 8.5 4.56224C8.68786 4.56224 8.86803 4.63091 9.00087 4.75314C9.13371 4.87536 9.20834 5.04114 9.20834 5.21399V7.16925H11.3333C11.5212 7.16925 11.7014 7.23791 11.8342 7.36014C11.967 7.48237 12.0417 7.64814 12.0417 7.821Z" fill="#F9CC11"/>
</svg>
